<?xml version="1.0" encoding="UTF-8" standalone="no"?>
<!DOCTYPE svg PUBLIC "-//W3C//DTD SVG 1.1//EN"
 "http://www.w3.org/Graphics/SVG/1.1/DTD/svg11.dtd">
<!-- Generated by graphviz version 2.26.3 (20100126.1600)
 -->
<!-- Title: G Pages: 1 -->
<svg width="938pt" height="986pt"
 viewBox="0.00 0.00 938.00 986.00" xmlns="http://www.w3.org/2000/svg" xmlns:xlink="http://www.w3.org/1999/xlink">
<g id="graph1" class="graph" transform="scale(1 1) rotate(0) translate(4 982)">
<title>G</title>
<polygon fill="white" stroke="white" points="-4,5 -4,-982 935,-982 935,5 -4,5"/>
<g id="graph2" class="cluster"><title>cluster_Global</title>
<polyline fill="none" stroke="gray" points="20,-44 910,-44 "/>
<path fill="none" stroke="gray" d="M910,-44C916,-44 922,-50 922,-56"/>
<polyline fill="none" stroke="gray" points="922,-56 922,-958 "/>
<path fill="none" stroke="gray" d="M922,-958C922,-964 916,-970 910,-970"/>
<polyline fill="none" stroke="gray" points="910,-970 20,-970 "/>
<path fill="none" stroke="gray" d="M20,-970C14,-970 8,-964 8,-958"/>
<polyline fill="none" stroke="gray" points="8,-958 8,-56 "/>
<path fill="none" stroke="gray" d="M8,-56C8,-50 14,-44 20,-44"/>
<text text-anchor="middle" x="465" y="-956.1" font-family="Times Roman,serif" font-size="11.00" fill="gray">Global</text>
</g>
<g id="graph3" class="cluster"><title>cluster_\TuneReporting</title>
<polyline fill="none" stroke="gray" points="28,-52 902,-52 "/>
<path fill="none" stroke="gray" d="M902,-52C908,-52 914,-58 914,-64"/>
<polyline fill="none" stroke="gray" points="914,-64 914,-928 "/>
<path fill="none" stroke="gray" d="M914,-928C914,-934 908,-940 902,-940"/>
<polyline fill="none" stroke="gray" points="902,-940 28,-940 "/>
<path fill="none" stroke="gray" d="M28,-940C22,-940 16,-934 16,-928"/>
<polyline fill="none" stroke="gray" points="16,-928 16,-64 "/>
<path fill="none" stroke="gray" d="M16,-64C16,-58 22,-52 28,-52"/>
<text text-anchor="middle" x="465" y="-926.1" font-family="Times Roman,serif" font-size="11.00" fill="gray">TuneReporting</text>
</g>
<g id="graph4" class="cluster"><title>cluster_\TuneReporting\Helpers</title>
<polyline fill="none" stroke="gray" points="475,-620 874,-620 "/>
<path fill="none" stroke="gray" d="M874,-620C880,-620 886,-626 886,-632"/>
<polyline fill="none" stroke="gray" points="886,-632 886,-898 "/>
<path fill="none" stroke="gray" d="M886,-898C886,-904 880,-910 874,-910"/>
<polyline fill="none" stroke="gray" points="874,-910 475,-910 "/>
<path fill="none" stroke="gray" d="M475,-910C469,-910 463,-904 463,-898"/>
<polyline fill="none" stroke="gray" points="463,-898 463,-632 "/>
<path fill="none" stroke="gray" d="M463,-632C463,-626 469,-620 475,-620"/>
<text text-anchor="middle" x="674.5" y="-896.1" font-family="Times Roman,serif" font-size="11.00" fill="gray">Helpers</text>
</g>
<g id="graph5" class="cluster"><title>cluster_\TuneReporting\Base</title>
<polyline fill="none" stroke="gray" points="36,-94 638,-94 "/>
<path fill="none" stroke="gray" d="M638,-94C644,-94 650,-100 650,-106"/>
<polyline fill="none" stroke="gray" points="650,-106 650,-600 "/>
<path fill="none" stroke="gray" d="M650,-600C650,-606 644,-612 638,-612"/>
<polyline fill="none" stroke="gray" points="638,-612 36,-612 "/>
<path fill="none" stroke="gray" d="M36,-612C30,-612 24,-606 24,-600"/>
<polyline fill="none" stroke="gray" points="24,-600 24,-106 "/>
<path fill="none" stroke="gray" d="M24,-106C24,-100 30,-94 36,-94"/>
<text text-anchor="middle" x="337" y="-598.1" font-family="Times Roman,serif" font-size="11.00" fill="gray">Base</text>
</g>
<g id="graph6" class="cluster"><title>cluster_\TuneReporting\Base\Service</title>
<polyline fill="none" stroke="gray" points="455,-292 613,-292 "/>
<path fill="none" stroke="gray" d="M613,-292C619,-292 625,-298 625,-304"/>
<polyline fill="none" stroke="gray" points="625,-304 625,-570 "/>
<path fill="none" stroke="gray" d="M625,-570C625,-576 619,-582 613,-582"/>
<polyline fill="none" stroke="gray" points="613,-582 455,-582 "/>
<path fill="none" stroke="gray" d="M455,-582C449,-582 443,-576 443,-570"/>
<polyline fill="none" stroke="gray" points="443,-570 443,-304 "/>
<path fill="none" stroke="gray" d="M443,-304C443,-298 449,-292 455,-292"/>
<text text-anchor="middle" x="534" y="-568.1" font-family="Times Roman,serif" font-size="11.00" fill="gray">Service</text>
</g>
<g id="graph7" class="cluster"><title>cluster_\TuneReporting\Base\Endpoints</title>
<polyline fill="none" stroke="gray" points="44,-102 630,-102 "/>
<path fill="none" stroke="gray" d="M630,-102C636,-102 642,-108 642,-114"/>
<polyline fill="none" stroke="gray" points="642,-114 642,-272 "/>
<path fill="none" stroke="gray" d="M642,-272C642,-278 636,-284 630,-284"/>
<polyline fill="none" stroke="gray" points="630,-284 44,-284 "/>
<path fill="none" stroke="gray" d="M44,-284C38,-284 32,-278 32,-272"/>
<polyline fill="none" stroke="gray" points="32,-272 32,-114 "/>
<path fill="none" stroke="gray" d="M32,-114C32,-108 38,-102 44,-102"/>
<text text-anchor="middle" x="337" y="-270.1" font-family="Times Roman,serif" font-size="11.00" fill="gray">Endpoints</text>
</g>
<g id="graph8" class="cluster"><title>cluster_\TuneReporting\Api</title>
<polyline fill="none" stroke="gray" points="710,-106 894,-106 "/>
<path fill="none" stroke="gray" d="M894,-106C900,-106 906,-112 906,-118"/>
<polyline fill="none" stroke="gray" points="906,-118 906,-600 "/>
<path fill="none" stroke="gray" d="M906,-600C906,-606 900,-612 894,-612"/>
<polyline fill="none" stroke="gray" points="894,-612 710,-612 "/>
<path fill="none" stroke="gray" d="M710,-612C704,-612 698,-606 698,-600"/>
<polyline fill="none" stroke="gray" points="698,-600 698,-118 "/>
<path fill="none" stroke="gray" d="M698,-118C698,-112 704,-106 710,-106"/>
<text text-anchor="middle" x="802" y="-598.1" font-family="Times Roman,serif" font-size="11.00" fill="gray">Api</text>
</g>
<!-- \\TuneReporting\\Helpers\\ReportReaderJSON -->
<g id="node4" class="node"><title>\\TuneReporting\\Helpers\\ReportReaderJSON</title>
<polygon fill="none" stroke="black" points="864,-826 740,-826 740,-790 864,-790 864,-826"/>
<text text-anchor="middle" x="802" y="-805.1" font-family="Courier,monospace" font-size="11.00">ReportReaderJSON</text>
</g>
<!-- \\TuneReporting\\Helpers\\ReportReaderBase -->
<g id="node8" class="node"><title>\\TuneReporting\\Helpers\\ReportReaderBase</title>
<polygon fill="none" stroke="black" points="597,-853 471,-853 471,-817 597,-817 597,-853"/>
<text text-anchor="start" x="500" y="-840.433" font-family="Courier,monospace" font-size="11.00">«abstract»</text>
<text text-anchor="start" x="479.5" y="-827.233" font-family="Courier,monospace" font-size="11.00">ReportReaderBase</text>
</g>
<!-- \\TuneReporting\\Helpers\\ReportReaderJSON&#45;&gt;\\TuneReporting\\Helpers\\ReportReaderBase -->
<g id="edge9" class="edge"><title>\\TuneReporting\\Helpers\\ReportReaderJSON&#45;&gt;\\TuneReporting\\Helpers\\ReportReaderBase</title>
<path fill="none" stroke="black" d="M739.166,-814.33C699.718,-818.305 648.678,-823.447 607.375,-827.608"/>
<polygon fill="none" stroke="black" points="606.968,-824.131 597.369,-828.616 607.67,-831.096 606.968,-824.131"/>
</g>
<!-- \\TuneReporting\\Helpers\\TuneSdkException -->
<g id="node5" class="node"><title>\\TuneReporting\\Helpers\\TuneSdkException</title>
<polygon fill="none" stroke="black" points="864,-718 740,-718 740,-682 864,-682 864,-718"/>
<text text-anchor="middle" x="802" y="-697.1" font-family="Courier,monospace" font-size="11.00">TuneSdkException</text>
</g>
<!-- \\Exception -->
<g id="node36" class="node"><title>\\Exception</title>
<ellipse fill="none" stroke="black" cx="534" cy="-18" rx="62.9325" ry="18.3848"/>
<text text-anchor="middle" x="534" y="-14.4" font-family="Times Roman,serif" font-size="14.00" fill="gray">\Exception</text>
</g>
<!-- \\TuneReporting\\Helpers\\TuneSdkException&#45;&gt;\\Exception -->
<g id="edge11" class="edge"><title>\\TuneReporting\\Helpers\\TuneSdkException&#45;&gt;\\Exception</title>
<path fill="none" stroke="black" d="M739.269,-696.395C723.64,-692.425 708.395,-685.341 698,-673 615.393,-574.933 714.285,-208.943 650,-98 634.161,-70.6647 604.783,-50.5503 579.556,-37.3277"/>
<polygon fill="none" stroke="black" points="580.989,-34.1309 570.483,-32.7674 577.846,-40.3854 580.989,-34.1309"/>
</g>
<!-- \\TuneReporting\\Helpers\\ReportExportWorker -->
<g id="node6" class="node"><title>\\TuneReporting\\Helpers\\ReportExportWorker</title>
<polygon fill="none" stroke="black" points="871,-772 733,-772 733,-736 871,-736 871,-772"/>
<text text-anchor="middle" x="802" y="-751.1" font-family="Courier,monospace" font-size="11.00">ReportExportWorker</text>
</g>
<!-- \\TuneReporting\\Helpers\\ReportReaderCSV -->
<g id="node7" class="node"><title>\\TuneReporting\\Helpers\\ReportReaderCSV</title>
<polygon fill="none" stroke="black" points="861,-880 743,-880 743,-844 861,-844 861,-880"/>
<text text-anchor="middle" x="802" y="-859.1" font-family="Courier,monospace" font-size="11.00">ReportReaderCSV</text>
</g>
<!-- \\TuneReporting\\Helpers\\ReportReaderCSV&#45;&gt;\\TuneReporting\\Helpers\\ReportReaderBase -->
<g id="edge13" class="edge"><title>\\TuneReporting\\Helpers\\ReportReaderCSV&#45;&gt;\\TuneReporting\\Helpers\\ReportReaderBase</title>
<path fill="none" stroke="black" d="M742.854,-856.041C702.897,-852.016 649.864,-846.673 607.238,-842.378"/>
<polygon fill="none" stroke="black" points="607.5,-838.887 597.199,-841.367 606.798,-845.852 607.5,-838.887"/>
</g>
<!-- \\TuneReporting\\Helpers\\TuneServiceException -->
<g id="node9" class="node"><title>\\TuneReporting\\Helpers\\TuneServiceException</title>
<polygon fill="none" stroke="black" points="878,-664 726,-664 726,-628 878,-628 878,-664"/>
<text text-anchor="middle" x="802" y="-643.1" font-family="Courier,monospace" font-size="11.00">TuneServiceException</text>
</g>
<!-- \\TuneReporting\\Helpers\\TuneServiceException&#45;&gt;\\Exception -->
<g id="edge15" class="edge"><title>\\TuneReporting\\Helpers\\TuneServiceException&#45;&gt;\\Exception</title>
<path fill="none" stroke="black" d="M725.88,-635.783C715.196,-631.262 705.367,-624.905 698,-616 624.308,-526.928 708.414,-197.76 650,-98 634.036,-70.7372 604.659,-50.6221 579.464,-37.381"/>
<polygon fill="none" stroke="black" points="580.909,-34.1897 570.404,-32.8133 577.758,-40.4403 580.909,-34.1897"/>
</g>
<!-- \\TuneReporting\\Base\\Service\\TuneManagementRequest -->
<g id="node12" class="node"><title>\\TuneReporting\\Base\\Service\\TuneManagementRequest</title>
<polygon fill="none" stroke="black" points="613,-552 455,-552 455,-516 613,-516 613,-552"/>
<text text-anchor="middle" x="534" y="-531.1" font-family="Courier,monospace" font-size="11.00">TuneManagementRequest</text>
</g>
<!-- \\TuneReporting\\Base\\Service\\TuneManagementResponse -->
<g id="node13" class="node"><title>\\TuneReporting\\Base\\Service\\TuneManagementResponse</title>
<polygon fill="none" stroke="black" points="616,-498 452,-498 452,-462 616,-462 616,-498"/>
<text text-anchor="middle" x="534" y="-477.1" font-family="Courier,monospace" font-size="11.00">TuneManagementResponse</text>
</g>
<!-- \\TuneReporting\\Base\\Service\\TuneManagementProxy -->
<g id="node14" class="node"><title>\\TuneReporting\\Base\\Service\\TuneManagementProxy</title>
<polygon fill="none" stroke="black" points="606,-444 462,-444 462,-408 606,-408 606,-444"/>
<text text-anchor="middle" x="534" y="-423.1" font-family="Courier,monospace" font-size="11.00">TuneManagementProxy</text>
</g>
<!-- \\TuneReporting\\Base\\Service\\TuneManagementClient -->
<g id="node15" class="node"><title>\\TuneReporting\\Base\\Service\\TuneManagementClient</title>
<polygon fill="none" stroke="black" points="610,-390 458,-390 458,-354 610,-354 610,-390"/>
<text text-anchor="middle" x="534" y="-369.1" font-family="Courier,monospace" font-size="11.00">TuneManagementClient</text>
</g>
<!-- \\TuneReporting\\Base\\Service\\QueryStringBuilder -->
<g id="node16" class="node"><title>\\TuneReporting\\Base\\Service\\QueryStringBuilder</title>
<polygon fill="none" stroke="black" points="603,-336 465,-336 465,-300 603,-300 603,-336"/>
<text text-anchor="middle" x="534" y="-315.1" font-family="Courier,monospace" font-size="11.00">QueryStringBuilder</text>
</g>
<!-- \\TuneReporting\\Base\\Endpoints\\AdvertiserReportInsightBase -->
<g id="node18" class="node"><title>\\TuneReporting\\Base\\Endpoints\\AdvertiserReportInsightBase</title>
<polygon fill="none" stroke="black" points="634,-200 434,-200 434,-164 634,-164 634,-200"/>
<text text-anchor="start" x="500" y="-187.433" font-family="Courier,monospace" font-size="11.00">«abstract»</text>
<text text-anchor="start" x="442.5" y="-174.233" font-family="Courier,monospace" font-size="11.00">AdvertiserReportInsightBase</text>
</g>
<!-- \\TuneReporting\\Base\\Endpoints\\AdvertiserReportBase -->
<g id="node20" class="node"><title>\\TuneReporting\\Base\\Endpoints\\AdvertiserReportBase</title>
<polygon fill="none" stroke="black" points="362,-213 210,-213 210,-177 362,-177 362,-213"/>
<text text-anchor="middle" x="286" y="-192.1" font-family="Courier,monospace" font-size="11.00">AdvertiserReportBase</text>
</g>
<!-- \\TuneReporting\\Base\\Endpoints\\AdvertiserReportInsightBase&#45;&gt;\\TuneReporting\\Base\\Endpoints\\AdvertiserReportBase -->
<g id="edge17" class="edge"><title>\\TuneReporting\\Base\\Endpoints\\AdvertiserReportInsightBase&#45;&gt;\\TuneReporting\\Base\\Endpoints\\AdvertiserReportBase</title>
<path fill="none" stroke="black" d="M433.844,-187.25C413.467,-188.318 392.197,-189.433 372.349,-190.474"/>
<polygon fill="none" stroke="black" points="371.915,-186.991 362.112,-191.01 372.282,-193.982 371.915,-186.991"/>
</g>
<!-- \\TuneReporting\\Base\\Endpoints\\AdvertiserReportLogsBase -->
<g id="node19" class="node"><title>\\TuneReporting\\Base\\Endpoints\\AdvertiserReportLogsBase</title>
<polygon fill="none" stroke="black" points="624,-146 444,-146 444,-110 624,-110 624,-146"/>
<text text-anchor="start" x="500" y="-133.433" font-family="Courier,monospace" font-size="11.00">«abstract»</text>
<text text-anchor="start" x="452.5" y="-120.233" font-family="Courier,monospace" font-size="11.00">AdvertiserReportLogsBase</text>
</g>
<!-- \\TuneReporting\\Base\\Endpoints\\AdvertiserReportLogsBase&#45;&gt;\\TuneReporting\\Base\\Endpoints\\AdvertiserReportBase -->
<g id="edge19" class="edge"><title>\\TuneReporting\\Base\\Endpoints\\AdvertiserReportLogsBase&#45;&gt;\\TuneReporting\\Base\\Endpoints\\AdvertiserReportBase</title>
<path fill="none" stroke="black" d="M467.299,-146.007C456.179,-149.009 444.764,-152.092 434,-155 410.73,-161.286 385.402,-168.131 362.385,-174.352"/>
<polygon fill="none" stroke="black" points="361.415,-170.988 352.674,-176.976 363.241,-177.746 361.415,-170.988"/>
</g>
<!-- \\TuneReporting\\Base\\Endpoints\\EndpointBase -->
<g id="node21" class="node"><title>\\TuneReporting\\Base\\Endpoints\\EndpointBase</title>
<polygon fill="none" stroke="black" points="138,-240 40,-240 40,-204 138,-204 138,-240"/>
<text text-anchor="middle" x="89" y="-219.1" font-family="Courier,monospace" font-size="11.00">EndpointBase</text>
</g>
<!-- \\TuneReporting\\Base\\Endpoints\\AdvertiserReportBase&#45;&gt;\\TuneReporting\\Base\\Endpoints\\EndpointBase -->
<g id="edge21" class="edge"><title>\\TuneReporting\\Base\\Endpoints\\AdvertiserReportBase&#45;&gt;\\TuneReporting\\Base\\Endpoints\\EndpointBase</title>
<path fill="none" stroke="black" d="M209.835,-205.439C189.46,-208.231 167.739,-211.208 148.414,-213.857"/>
<polygon fill="none" stroke="black" points="147.681,-210.425 138.249,-215.25 148.632,-217.36 147.681,-210.425"/>
</g>
<!-- \\TuneReporting\\Base\\Endpoints\\AdvertiserReportActualsBase -->
<g id="node22" class="node"><title>\\TuneReporting\\Base\\Endpoints\\AdvertiserReportActualsBase</title>
<polygon fill="none" stroke="black" points="634,-254 434,-254 434,-218 634,-218 634,-254"/>
<text text-anchor="start" x="500" y="-241.433" font-family="Courier,monospace" font-size="11.00">«abstract»</text>
<text text-anchor="start" x="442.5" y="-228.233" font-family="Courier,monospace" font-size="11.00">AdvertiserReportActualsBase</text>
</g>
<!-- \\TuneReporting\\Base\\Endpoints\\AdvertiserReportActualsBase&#45;&gt;\\TuneReporting\\Base\\Endpoints\\AdvertiserReportBase -->
<g id="edge23" class="edge"><title>\\TuneReporting\\Base\\Endpoints\\AdvertiserReportActualsBase&#45;&gt;\\TuneReporting\\Base\\Endpoints\\AdvertiserReportBase</title>
<path fill="none" stroke="black" d="M433.844,-219.442C413.373,-216.058 392.002,-212.525 372.076,-209.23"/>
<polygon fill="none" stroke="black" points="372.549,-205.761 362.112,-207.583 371.407,-212.667 372.549,-205.761"/>
</g>
<!-- \\TuneReporting\\Api\\AdvertiserReportClicks -->
<g id="node24" class="node"><title>\\TuneReporting\\Api\\AdvertiserReportClicks</title>
<polygon fill="none" stroke="black" points="884,-312 720,-312 720,-276 884,-276 884,-312"/>
<text text-anchor="middle" x="802" y="-291.1" font-family="Courier,monospace" font-size="11.00">AdvertiserReportClicks</text>
</g>
<!-- \\TuneReporting\\Api\\AdvertiserReportClicks&#45;&gt;\\TuneReporting\\Base\\Endpoints\\AdvertiserReportLogsBase -->
<g id="edge25" class="edge"><title>\\TuneReporting\\Api\\AdvertiserReportClicks&#45;&gt;\\TuneReporting\\Base\\Endpoints\\AdvertiserReportLogsBase</title>
<path fill="none" stroke="black" d="M719.485,-280.36C711.708,-276.854 704.366,-272.471 698,-267 656.928,-231.701 691.515,-189.777 650,-155 645.007,-150.817 639.486,-147.255 633.644,-144.225"/>
<polygon fill="none" stroke="black" points="634.774,-140.892 624.227,-139.886 631.845,-147.249 634.774,-140.892"/>
</g>
<!-- \\TuneReporting\\Api\\Export -->
<g id="node25" class="node"><title>\\TuneReporting\\Api\\Export</title>
<polygon fill="none" stroke="black" points="830,-582 774,-582 774,-546 830,-546 830,-582"/>
<text text-anchor="middle" x="802" y="-561.1" font-family="Courier,monospace" font-size="11.00">Export</text>
</g>
<!-- \\TuneReporting\\Api\\Export&#45;&gt;\\TuneReporting\\Base\\Endpoints\\EndpointBase -->
<g id="edge27" class="edge"><title>\\TuneReporting\\Api\\Export&#45;&gt;\\TuneReporting\\Base\\Endpoints\\EndpointBase</title>
<path fill="none" stroke="black" d="M773.278,-574.112C709.265,-594.903 551.301,-636.439 434,-586 268.267,-514.736 144.811,-320.383 103.764,-248.872"/>
<polygon fill="none" stroke="black" points="106.714,-246.978 98.7376,-240.005 100.625,-250.431 106.714,-246.978"/>
</g>
<!-- \\TuneReporting\\Api\\AdvertiserReportRetention -->
<g id="node26" class="node"><title>\\TuneReporting\\Api\\AdvertiserReportRetention</title>
<polygon fill="none" stroke="black" points="894,-420 710,-420 710,-384 894,-384 894,-420"/>
<text text-anchor="middle" x="802" y="-399.1" font-family="Courier,monospace" font-size="11.00">AdvertiserReportRetention</text>
</g>
<!-- \\TuneReporting\\Api\\AdvertiserReportRetention&#45;&gt;\\TuneReporting\\Base\\Endpoints\\AdvertiserReportInsightBase -->
<g id="edge29" class="edge"><title>\\TuneReporting\\Api\\AdvertiserReportRetention&#45;&gt;\\TuneReporting\\Base\\Endpoints\\AdvertiserReportInsightBase</title>
<path fill="none" stroke="black" d="M709.418,-383.969C705.319,-381.356 701.476,-378.382 698,-375 642.953,-321.445 705.72,-261.854 650,-209 647.785,-206.899 645.439,-204.95 642.986,-203.144"/>
<polygon fill="none" stroke="black" points="644.565,-199.998 634.261,-197.533 640.779,-205.885 644.565,-199.998"/>
</g>
<!-- \\TuneReporting\\Api\\AdvertiserReportInstalls -->
<g id="node27" class="node"><title>\\TuneReporting\\Api\\AdvertiserReportInstalls</title>
<polygon fill="none" stroke="black" points="891,-150 713,-150 713,-114 891,-114 891,-150"/>
<text text-anchor="middle" x="802" y="-129.1" font-family="Courier,monospace" font-size="11.00">AdvertiserReportInstalls</text>
</g>
<!-- \\TuneReporting\\Api\\AdvertiserReportInstalls&#45;&gt;\\TuneReporting\\Base\\Endpoints\\AdvertiserReportLogsBase -->
<g id="edge31" class="edge"><title>\\TuneReporting\\Api\\AdvertiserReportInstalls&#45;&gt;\\TuneReporting\\Base\\Endpoints\\AdvertiserReportLogsBase</title>
<path fill="none" stroke="black" d="M712.387,-130.662C687.401,-130.29 660.093,-129.882 634.523,-129.5"/>
<polygon fill="none" stroke="black" points="634.493,-126 624.442,-129.35 634.389,-132.999 634.493,-126"/>
</g>
<!-- \\TuneReporting\\Api\\AdvertiserReportEventItems -->
<g id="node28" class="node"><title>\\TuneReporting\\Api\\AdvertiserReportEventItems</title>
<polygon fill="none" stroke="black" points="898,-366 706,-366 706,-330 898,-330 898,-366"/>
<text text-anchor="middle" x="802" y="-345.1" font-family="Courier,monospace" font-size="11.00">AdvertiserReportEventItems</text>
</g>
<!-- \\TuneReporting\\Api\\AdvertiserReportEventItems&#45;&gt;\\TuneReporting\\Base\\Endpoints\\AdvertiserReportLogsBase -->
<g id="edge33" class="edge"><title>\\TuneReporting\\Api\\AdvertiserReportEventItems&#45;&gt;\\TuneReporting\\Base\\Endpoints\\AdvertiserReportLogsBase</title>
<path fill="none" stroke="black" d="M709.418,-329.969C705.319,-327.356 701.476,-324.382 698,-321 642.953,-267.445 705.72,-207.854 650,-155 645.011,-150.267 639.36,-146.309 633.304,-143.003"/>
<polygon fill="none" stroke="black" points="634.7,-139.791 624.171,-138.612 631.667,-146.099 634.7,-139.791"/>
</g>
<!-- \\TuneReporting\\Api\\AdvertiserReportActuals -->
<g id="node29" class="node"><title>\\TuneReporting\\Api\\AdvertiserReportActuals</title>
<polygon fill="none" stroke="black" points="888,-528 716,-528 716,-492 888,-492 888,-528"/>
<text text-anchor="middle" x="802" y="-507.1" font-family="Courier,monospace" font-size="11.00">AdvertiserReportActuals</text>
</g>
<!-- \\TuneReporting\\Api\\AdvertiserReportActuals&#45;&gt;\\TuneReporting\\Base\\Endpoints\\AdvertiserReportActualsBase -->
<g id="edge35" class="edge"><title>\\TuneReporting\\Api\\AdvertiserReportActuals&#45;&gt;\\TuneReporting\\Base\\Endpoints\\AdvertiserReportActualsBase</title>
<path fill="none" stroke="black" d="M715.524,-495.848C709.08,-492.403 703.112,-488.177 698,-483 635.289,-419.49 707.182,-356.531 650,-288 639.462,-275.37 625.227,-265.687 610.342,-258.305"/>
<polygon fill="none" stroke="black" points="611.564,-255.014 601.017,-254 608.63,-261.369 611.564,-255.014"/>
</g>
<!-- \\TuneReporting\\Api\\AdvertiserReportEvents -->
<g id="node30" class="node"><title>\\TuneReporting\\Api\\AdvertiserReportEvents</title>
<polygon fill="none" stroke="black" points="884,-258 720,-258 720,-222 884,-222 884,-258"/>
<text text-anchor="middle" x="802" y="-237.1" font-family="Courier,monospace" font-size="11.00">AdvertiserReportEvents</text>
</g>
<!-- \\TuneReporting\\Api\\AdvertiserReportEvents&#45;&gt;\\TuneReporting\\Base\\Endpoints\\AdvertiserReportLogsBase -->
<g id="edge37" class="edge"><title>\\TuneReporting\\Api\\AdvertiserReportEvents&#45;&gt;\\TuneReporting\\Base\\Endpoints\\AdvertiserReportLogsBase</title>
<path fill="none" stroke="black" d="M719.336,-223.76C711.85,-220.759 704.61,-217.206 698,-213 669.771,-195.036 678.454,-172.605 650,-155 644.875,-151.829 639.413,-149.03 633.757,-146.559"/>
<polygon fill="none" stroke="black" points="634.667,-143.154 624.081,-142.704 632.075,-149.657 634.667,-143.154"/>
</g>
<!-- \\TuneReporting\\Api\\AdvertiserReportCohort -->
<g id="node31" class="node"><title>\\TuneReporting\\Api\\AdvertiserReportCohort</title>
<polygon fill="none" stroke="black" points="884,-474 720,-474 720,-438 884,-438 884,-474"/>
<text text-anchor="middle" x="802" y="-453.1" font-family="Courier,monospace" font-size="11.00">AdvertiserReportCohort</text>
</g>
<!-- \\TuneReporting\\Api\\AdvertiserReportCohort&#45;&gt;\\TuneReporting\\Base\\Endpoints\\AdvertiserReportInsightBase -->
<g id="edge39" class="edge"><title>\\TuneReporting\\Api\\AdvertiserReportCohort&#45;&gt;\\TuneReporting\\Base\\Endpoints\\AdvertiserReportInsightBase</title>
<path fill="none" stroke="black" d="M719.38,-444.033C711.428,-440.229 704.077,-435.32 698,-429 628.634,-356.861 720.273,-280.255 650,-209 647.641,-206.608 645.113,-204.41 642.449,-202.393"/>
<polygon fill="none" stroke="black" points="644.35,-199.453 634.076,-196.864 640.493,-205.295 644.35,-199.453"/>
</g>
<!-- \\TuneReporting\\Api\\AdvertiserReportPostbacks -->
<g id="node32" class="node"><title>\\TuneReporting\\Api\\AdvertiserReportPostbacks</title>
<polygon fill="none" stroke="black" points="894,-204 710,-204 710,-168 894,-168 894,-204"/>
<text text-anchor="middle" x="802" y="-183.1" font-family="Courier,monospace" font-size="11.00">AdvertiserReportPostbacks</text>
</g>
<!-- \\TuneReporting\\Api\\AdvertiserReportPostbacks&#45;&gt;\\TuneReporting\\Base\\Endpoints\\AdvertiserReportLogsBase -->
<g id="edge41" class="edge"><title>\\TuneReporting\\Api\\AdvertiserReportPostbacks&#45;&gt;\\TuneReporting\\Base\\Endpoints\\AdvertiserReportLogsBase</title>
<path fill="none" stroke="black" d="M718.672,-167.966C689.682,-161.692 656.98,-154.615 627.239,-148.179"/>
<polygon fill="none" stroke="black" points="627.79,-144.717 617.276,-146.022 626.31,-151.559 627.79,-144.717"/>
</g>
<!-- \\TuneReporting\\TuneApi -->
<g id="node33" class="node"><title>\\TuneReporting\\TuneApi</title>
<polygon fill="none" stroke="black" points="834,-96 770,-96 770,-60 834,-60 834,-96"/>
<text text-anchor="middle" x="802" y="-75.1" font-family="Courier,monospace" font-size="11.00">TuneApi</text>
</g>
</g>
</svg>
